<svg xmlns="http://www.w3.org/2000/svg" xmlns:xlink="http://www.w3.org/1999/xlink" viewBox="0 0 640 360">
<style>
        path {
            fill: black;
        }
        @media (prefers-color-scheme: dark) {
            path {
                fill: white;
            }
        }
    </style>
    <path d="M145.422524,163 L145.422,141.818 L158.748491,141.81768 C161.400424,141.81768 163.788082,141.259764 165.911465,140.143933 L166.306502,139.928177 C168.527496,138.668508 170.25954,136.911602 171.502634,134.657459 C172.745728,132.403315 173.367275,129.850829 173.367275,127 C173.367275,124.132597 172.745728,121.56768 171.502634,119.305249 C170.25954,117.042818 168.527496,115.273481 166.306502,113.997238 C164.085507,112.720994 161.56617,112.082873 158.748491,112.082873 L158.748491,112.082873 L143.831364,112.082873 L143.831364,163 L145.422524,163 Z M145.422524,113.674033 L158.748491,113.674033 C161.267828,113.674033 163.513684,114.237569 165.48606,115.364641 C167.458435,116.491713 168.999872,118.070442 170.110369,120.100829 C171.220866,122.131215 171.776115,124.430939 171.776115,127 C171.776115,129.552486 171.220866,131.831492 170.110369,133.837017 C168.999872,135.842541 167.458435,137.40884 165.48606,138.535912 C163.513684,139.662983 161.267828,140.226519 158.748491,140.226519 L158.748491,140.226519 L145.422,140.227 L145.422524,113.674033 Z M186.02148,163 L186.02148,137.790055 C186.02148,135.734807 186.497999,133.890884 187.451038,132.258287 C188.404076,130.625691 189.721756,129.349448 191.404076,128.429558 C193.086397,127.509669 194.980043,127.049724 197.085016,127.049724 C197.399933,127.049724 197.689988,127.062155 197.955181,127.087017 C198.220375,127.111878 198.460706,127.132597 198.676176,127.149171 L198.676176,127.149171 L198.676176,124.314917 C198.444132,124.298343 198.212087,124.290055 197.980043,124.290055 L197.980043,124.290055 L197.234187,124.290055 C195.560154,124.290055 193.989712,124.559392 192.522861,125.098066 C191.05601,125.63674 189.779767,126.395028 188.694132,127.372928 C187.608496,128.350829 186.783911,129.494475 186.220375,130.803867 L186.220375,130.803867 L185.971756,130.803867 L185.971756,124.812155 L183.187226,124.812155 L183.187226,163 L186.02148,163 Z M220.429955,163.79558 C222.899569,163.79558 225.132994,163.377072 227.130231,162.540055 C229.127469,161.703039 230.801502,160.584254 232.152331,159.183702 C233.50316,157.783149 234.460342,156.237569 235.023878,154.546961 L235.023878,154.546961 L230.673049,154.546961 C230.175812,155.458564 229.475535,156.332873 228.57222,157.16989 C227.668906,158.006906 226.529403,158.707182 225.153712,159.270718 C223.778022,159.834254 222.203436,160.116022 220.429955,160.116022 C217.744872,160.116022 215.407856,159.46547 213.418906,158.164365 C211.429955,156.86326 209.896806,155.035912 208.819458,152.68232 C207.74211,150.328729 207.203436,147.618785 207.203436,144.552486 L207.208,145.025 L235.869182,145.024862 L235.869182,142.911602 C235.869182,138.983425 235.127469,135.614641 233.644044,132.805249 C232.160618,129.995856 230.200673,127.870166 227.764209,126.428177 C225.327745,124.986188 222.659237,124.265193 219.758685,124.265193 C216.543215,124.265193 213.675812,125.114641 211.156475,126.813536 C208.637138,128.512431 206.673049,130.870166 205.264209,133.88674 C203.85537,136.903315 203.15095,140.309392 203.15095,144.104972 C203.15095,147.933702 203.85537,151.339779 205.264209,154.323204 C206.673049,157.30663 208.686861,159.631215 211.305646,161.296961 C213.92443,162.962707 216.965867,163.79558 220.429955,163.79558 Z M207.260686,141.06925 C207.426076,138.978942 207.94981,137.028142 208.831889,135.216851 C209.917524,132.987569 211.413381,131.218232 213.319458,129.90884 C215.225535,128.599448 217.380231,127.944751 219.783546,127.944751 C222.054265,127.944751 224.097082,128.541436 225.911999,129.734807 C227.726917,130.928177 229.152331,132.552486 230.188243,134.607735 C231.224154,136.662983 231.74211,138.950276 231.74211,141.469613 L231.74211,141.469613 L207.234,141.47 L207.260686,141.06925 Z M256.902301,163.522099 C258.377439,163.522099 259.661969,163.439227 260.755892,163.273481 L260.755892,163.273481 L260.755892,158.325967 C260.60672,158.342541 260.449262,158.350829 260.283516,158.350829 C260.11777,158.350829 259.93545,158.359116 259.736555,158.375691 C259.355339,158.40884 258.965836,158.433702 258.568046,158.450276 C258.170256,158.466851 257.797328,158.475138 257.449262,158.475138 C256.405063,158.475138 255.485174,158.301105 254.689593,157.953039 C253.894013,157.604972 253.255892,156.991713 252.775229,156.11326 C252.294566,155.234807 252.054234,154.033149 252.054234,152.508287 L252.054234,152.508287 L252.054,129.288 L260.084621,129.287293 L260.084621,124.812155 L252.054,124.813 L252.054234,115.662983 L246.733792,115.662983 L246.733,124.813 L241.01556,124.812155 L241.01556,129.287293 L246.733,129.288 L246.733792,153.825967 C246.733792,155.752762 247.15625,157.420985 248.001165,158.830634 L248.175781,159.109116 C249.137107,160.575967 250.396776,161.678177 251.954787,162.415746 C253.512798,163.153315 255.161969,163.522099 256.902301,163.522099 Z M284.324042,163.79558 C286.959401,163.79558 289.346141,163.381215 291.484263,162.552486 C293.622385,161.723757 295.408296,160.555249 296.841998,159.046961 C298.2757,157.538674 299.282606,155.790055 299.862716,153.801105 L299.862716,153.801105 L292.975976,153.801105 C292.511887,154.629834 291.877909,155.367403 291.074042,156.013812 C290.270175,156.660221 289.300561,157.16989 288.165202,157.542818 C287.029843,157.915746 285.749456,158.10221 284.324042,158.10221 C282.053324,158.10221 280.06023,157.604972 278.34476,156.610497 C276.629291,155.616022 275.29918,154.161602 274.354429,152.247238 C273.527771,150.572169 273.062777,148.595714 272.959444,146.317874 L272.949,146.02 L300.434539,146.019337 L300.434539,143.433702 C300.434539,138.991713 299.655534,135.345304 298.097523,132.494475 C296.539512,129.643646 294.500838,127.56768 291.981501,126.266575 C289.462164,124.96547 286.710782,124.314917 283.727357,124.314917 C280.296418,124.314917 277.267412,125.151934 274.64034,126.825967 C272.013269,128.5 269.970451,130.84116 268.511887,133.849448 C267.053324,136.857735 266.324042,140.301105 266.324042,144.179558 C266.324042,148.09116 267.04918,151.526243 268.499456,154.484807 C269.949733,157.44337 272.033987,159.734807 274.752219,161.359116 C277.470451,162.983425 280.661059,163.79558 284.324042,163.79558 Z M272.964954,140.654245 C273.075564,138.941312 273.518004,137.331886 274.292274,135.825967 C275.195589,134.069061 276.467688,132.656077 278.108572,131.587017 C279.749456,130.517956 281.647246,129.983425 283.801943,129.983425 C285.790893,129.983425 287.543655,130.447514 289.06023,131.375691 C290.576804,132.303867 291.745313,133.575967 292.565755,135.191989 C293.386197,136.808011 293.796418,138.635359 293.796418,140.674033 L293.796418,140.674033 L272.963,140.675 L272.964954,140.654245 Z M315.898591,163 L315.898591,140.450276 C315.898591,138.527624 316.267376,136.870166 317.004945,135.477901 C317.742514,134.085635 318.757707,133.024862 320.050525,132.29558 C321.343343,131.566298 322.826768,131.201657 324.500801,131.201657 C326.125111,131.201657 327.521519,131.541436 328.690028,132.220994 C329.858536,132.900552 330.757707,133.88674 331.387542,135.179558 C332.017376,136.472376 332.332293,138.005525 332.332293,139.779006 L332.332293,139.779006 L332.332293,163 L340.387542,163 L340.387542,138.709945 C340.387542,135.643646 339.853011,133.037293 338.78395,130.890884 C337.71489,128.744475 336.198315,127.111878 334.234227,125.993094 C332.270138,124.874309 329.970414,124.314917 327.335055,124.314917 C325.478702,124.314917 323.808812,124.592541 322.325387,125.14779 C320.841961,125.703039 319.574006,126.490331 318.521519,127.509669 C317.469033,128.529006 316.644448,129.743094 316.047763,131.151934 L316.047763,131.151934 L315.575387,131.151934 L315.575387,124.812155 L307.868205,124.812155 L307.868205,163 L315.898591,163 Z M363.18555,163.671271 C365.124777,163.671271 366.802954,163.360497 368.220081,162.73895 C369.637208,162.117403 370.780854,161.359116 371.65102,160.464088 C372.521186,159.569061 373.279473,158.524862 373.925882,157.331492 C373.959031,157.281768 373.99218,157.223757 374.025329,157.157459 C374.058478,157.09116 374.091628,157.024862 374.124777,156.958564 L374.124777,156.958564 L374.597152,156.958564 L374.597152,163 L383.920357,163 L383.920357,112.082873 L374.447981,112.082873 L374.447981,131.151934 L374.124777,131.151934 C374.075053,131.052486 374.029473,130.961326 373.988036,130.878453 C373.9466,130.79558 373.90102,130.70442 373.851296,130.604972 C373.204887,129.444751 372.459031,128.417127 371.613727,127.522099 C370.768423,126.627072 369.641351,125.868785 368.232512,125.247238 C366.823672,124.625691 365.149639,124.314917 363.210412,124.314917 C360.260136,124.314917 357.599915,125.069061 355.229749,126.577348 C352.859583,128.085635 350.982512,130.323204 349.598534,133.290055 C348.214556,136.256906 347.522567,139.812155 347.522567,143.955801 C347.522567,148.049724 348.202125,151.584254 349.561241,154.559392 C350.920357,157.53453 352.784998,159.796961 355.155164,161.346685 C357.525329,162.896409 360.202125,163.671271 363.18555,163.671271 Z M365.945219,155.964088 C364.088865,155.964088 362.501849,155.458564 361.184169,154.447514 C359.866489,153.436464 358.867871,152.019337 358.188313,150.196133 C357.508755,148.372928 357.168976,146.276243 357.168976,143.906077 C357.168976,141.552486 357.504611,139.480663 358.175882,137.690608 C358.847152,135.900552 359.841628,134.504144 361.159307,133.501381 C362.476987,132.498619 364.072291,131.997238 365.945219,131.997238 C367.784998,131.997238 369.359583,132.477901 370.668976,133.439227 C371.978368,134.400552 372.972843,135.780387 373.652401,137.578729 C374.331959,139.377072 374.671738,141.486188 374.671738,143.906077 C374.671738,146.325967 374.327815,148.44337 373.63997,150.258287 C372.952125,152.073204 371.949362,153.477901 370.631683,154.472376 C369.314003,155.466851 367.751849,155.964088 365.945219,155.964088 Z M403.336804,163.696133 C405.160009,163.696133 406.792605,163.455801 408.234594,162.975138 C409.676583,162.494475 410.915533,161.80663 411.951445,160.911602 C412.987357,160.016575 413.828517,158.947514 414.474926,157.70442 L414.474926,157.70442 L414.773268,157.70442 L414.773268,163 L425.090948,163 L425.090948,137.218232 C425.090948,134.367403 424.349235,131.972376 422.86581,130.033149 C421.382384,128.093923 419.405865,126.656077 416.936252,125.719613 C414.466638,124.783149 411.715257,124.314917 408.682108,124.314917 C405.350616,124.314917 402.462495,124.84116 400.017743,125.893646 C397.572992,126.946133 395.683489,128.379834 394.349235,130.194751 C393.014981,132.009669 392.248406,134.052486 392.049511,136.323204 L392.049511,136.323204 L402.317467,136.323204 C402.483213,135.461326 402.835423,134.719613 403.374097,134.098066 C403.912771,133.476519 404.608904,133.008287 405.462495,132.69337 C406.316086,132.378453 407.306417,132.220994 408.433489,132.220994 C409.643434,132.220994 410.679346,132.403315 411.541224,132.767956 C412.403102,133.132597 413.066086,133.675414 413.530174,134.396409 C413.994263,135.117403 414.226307,135.983425 414.226307,136.994475 L414.226307,136.994475 L414.238,140.061 L414.077136,140.064917 C413.838462,140.071547 413.552053,140.080829 413.217909,140.092762 L412.958351,140.10221 C411.715257,140.168508 410.310561,140.23895 408.744263,140.313536 C407.177964,140.388122 405.881003,140.458564 404.853379,140.524862 C400.626859,140.790055 397.208351,141.838398 394.597854,143.66989 C391.987357,145.501381 390.682108,148.39779 390.682108,152.359116 C390.682108,154.79558 391.224926,156.867403 392.310561,158.574586 C393.396196,160.281768 394.887909,161.562155 396.785699,162.415746 C398.683489,163.269337 400.867191,163.696133 403.336804,163.696133 Z M406.519125,156.287293 C405.441777,156.287293 404.492881,156.121547 403.672439,155.790055 C402.851998,155.458564 402.209732,154.969613 401.745644,154.323204 C401.281556,153.676796 401.049511,152.889503 401.049511,151.961326 C401.049511,150.585635 401.546749,149.483425 402.541224,148.654696 C403.535699,147.825967 404.91139,147.337017 406.668296,147.187845 C407.364428,147.121547 408.267743,147.051105 409.378241,146.976519 C410.488738,146.901934 411.566086,146.839779 412.610285,146.790055 C413.140672,146.756906 413.596473,146.732044 413.977688,146.71547 C414.032147,146.713102 414.084239,146.710734 414.133963,146.708366 L414.265,146.703 L414.276031,149.375691 C414.276031,150.560773 413.997486,151.644884 413.440395,152.628021 L413.281556,152.893646 C412.618572,153.946133 411.698683,154.774862 410.521887,155.379834 C409.345091,155.984807 408.010837,156.287293 406.519125,156.287293 Z M444.855492,163 L444.855492,142.339779 C444.855492,140.864641 445.18284,139.546961 445.837536,138.38674 C446.492232,137.226519 447.38726,136.335635 448.522619,135.714088 C449.657978,135.092541 450.946652,134.781768 452.388641,134.781768 C453.151072,134.781768 453.996376,134.839779 454.924552,134.955801 C455.852729,135.071823 456.606873,135.220994 457.186983,135.403315 L457.186983,135.403315 L457.186983,124.712707 C456.640022,124.596685 456.076486,124.497238 455.496376,124.414365 C454.916265,124.331492 454.344442,124.290055 453.780906,124.290055 C452.355492,124.290055 451.062674,124.563536 449.902453,125.110497 C448.742232,125.657459 447.731182,126.494475 446.869304,127.621547 C446.007425,128.748619 445.344442,130.140884 444.880354,131.798343 L444.880354,131.798343 L444.482564,131.798343 L444.482564,124.812155 L432.548862,124.812155 L432.548862,163 L444.855492,163 Z M475.484409,163.497238 C477.158443,163.497238 478.679161,163.232044 480.046564,162.701657 C481.413967,162.171271 482.590763,161.437845 483.576951,160.501381 C484.563139,159.564917 485.346288,158.475138 485.926398,157.232044 C485.959548,157.149171 485.992697,157.066298 486.025846,156.983425 C486.058995,156.900552 486.092144,156.81768 486.125293,156.734807 L486.125293,156.734807 L486.423636,156.734807 L486.423636,163 L500.047945,163 L500.047945,112.082873 L486.324188,112.082873 L486.324188,131.475138 L486.125293,131.475138 C486.07557,131.359116 486.02999,131.243094 485.988553,131.127072 C485.947117,131.01105 485.893249,130.895028 485.826951,130.779006 C485.263415,129.535912 484.492697,128.429558 483.514796,127.459945 C482.536896,126.490331 481.364244,125.723757 479.99684,125.160221 C478.629437,124.596685 477.092144,124.314917 475.384962,124.314917 C472.733028,124.314917 470.27999,125.01105 468.025846,126.403315 C465.771702,127.79558 463.948498,129.962707 462.556233,132.904696 C461.163967,135.846685 460.467835,139.513812 460.467835,143.906077 C460.467835,148.149171 461.139106,151.745856 462.481647,154.696133 C463.824188,157.646409 465.626675,159.850829 467.889106,161.309392 C470.151536,162.767956 472.683304,163.497238 475.484409,163.497238 Z M480.556233,152.955801 C479.313139,152.955801 478.239934,152.599448 477.336619,151.88674 C476.433304,151.174033 475.749603,150.138122 475.285514,148.779006 C474.821426,147.41989 474.589382,145.79558 474.589382,143.906077 C474.589382,142.016575 474.821426,140.392265 475.285514,139.033149 C475.749603,137.674033 476.433304,136.638122 477.336619,135.925414 C478.239934,135.212707 479.313139,134.856354 480.556233,134.856354 C481.815901,134.856354 482.901536,135.212707 483.813139,135.925414 C484.724741,136.638122 485.420873,137.678177 485.901536,139.04558 C486.382199,140.412983 486.622531,142.033149 486.622531,143.906077 C486.622531,145.745856 486.382199,147.349448 485.901536,148.716851 C485.420873,150.084254 484.720597,151.132597 483.800708,151.861878 C482.880818,152.59116 481.799327,152.955801 480.556233,152.955801 Z M217.271007,226.966851 L217.271007,225.375691 L206.282,225.376 L206.282,200.763 L217.221283,200.762431 L217.221283,199.121547 L173.215758,199.121547 L173.215758,200.762431 L184.254,200.763 L184.254,225.376 L173.166034,225.375691 L173.166034,226.966851 L217.271007,226.966851 Z M204.641,225.376 L185.895,225.376 L185.895,200.763 L204.641,200.763 L204.641,225.376 Z M223.337305,244.121547 L223.337305,242.480663 L167.596973,242.480663 L167.596973,244.121547 L223.337305,244.121547 Z M280.196306,253.469613 L280.196306,191.513812 L276.168681,191.513812 L276.168681,253.469613 L280.196306,253.469613 Z M239.548861,238.229713 C244.636108,238.217685 249.458737,238.055939 254.016748,237.744475 C258.989123,237.404696 264.292991,236.79558 269.92835,235.917127 L269.92835,235.917127 L269.505698,232.461326 C264.002935,233.323204 258.790228,233.91989 253.867576,234.251381 C248.944924,234.582873 243.707355,234.740331 238.154869,234.723757 L238.154869,234.723757 L237.284,234.724 L237.284703,218.737569 L261.525035,218.737569 L261.525035,197.530387 L233.00846,197.530387 L233.00846,200.986188 L257.447687,200.986188 L257.447687,215.281768 L233.13277,215.281768 L233.13277,236.09116 L233.13277,238.229282 L239.548861,238.229713 Z M344.837074,238.179558 L344.837074,191.041436 L338.671328,191.041436 L338.671328,238.179558 L344.837074,238.179558 Z M332.530444,236.563536 L332.530444,192.309392 L326.290113,192.309392 L326.29,208.694 L318.408897,208.69337 L318.408897,213.939227 L326.29,213.94 L326.290113,236.563536 L332.530444,236.563536 Z M298.096743,228.135359 C303.40061,228.135359 307.734864,228.027624 311.099505,227.812155 C314.464146,227.596685 317.878511,227.149171 321.342599,226.469613 L321.342599,226.469613 L320.671328,221.248619 C317.522157,221.878453 314.42271,222.292818 311.372986,222.491713 C308.588455,222.673313 304.995609,222.772008 300.594445,222.787799 L300.309,222.789 L300.309,214.462 L315.52492,214.461326 L315.52492,209.389503 L300.309,209.39 L300.30945,201.40884 L318.011107,201.40884 L318.011107,196.088398 L294.044,196.088398 L294.044,222.791 L294.044,228.135359 L298.096743,228.135359 Z M346.701715,252.624309 L346.701715,247.279006 L310.055,247.28 L310.055306,232.958564 L303.442047,232.958564 L303.442047,250.560773 L303.442047,252.624309 L346.701715,252.624309 Z M403.560716,254.662983 L403.56,221.597 L412.983368,221.596685 L412.983368,214.187845 L403.56,214.188 L403.560716,190.444751 L394.461268,190.444751 L394.461268,254.662983 L403.560716,254.662983 Z M360.947456,239.099448 C367.245799,239.132597 372.653257,239.020718 377.169832,238.763812 C381.686406,238.506906 386.256848,237.980663 390.881158,237.185083 L390.881158,237.185083 L389.911545,229.60221 C385.370108,230.39779 380.857677,230.940608 376.374252,231.230663 C372.94575,231.45247 369.131975,231.579776 364.932927,231.612581 L364.577,231.615 L364.57729,203.720994 L385.585578,203.720994 L385.585578,196.38674 L355.552429,196.38674 L355.552429,235.320442 L355.552429,239.099448 L360.947456,239.099448 Z M468.226346,228.40884 L468.226346,219.209945 L432.823,219.21 L432.823031,204.19337 L467.87828,204.19337 L467.87828,194.895028 L421.386567,194.895028 L421.386567,222.98895 L421.386567,228.40884 L468.226346,228.40884 Z M474.342368,247.850829 L474.342368,238.353591 L414.823031,238.353591 L414.823031,247.850829 L474.342368,247.850829 Z"></path>
</svg>